# xmcd CD database file
#
# Track frame offsets:
#	150
#	21671
#	36443
#	54514
#	70041
#	90816
#	108584
#	125494
#	138605
#	153111
#	166124
#	188177
#	203250
#
# Disc length: 2974 seconds
#
# Revision: 0
# Processed by: cddbd v1.5.2PL0 Copyright (c) Steve Scherf et al.
# Submitted via: CDex 1.70beta2
#
DISCID=a70b9c0d
DTITLE=Antonio Patella - Un Amore Infinito
DYEAR=2002
DGENRE=New Age
TTITLE0=Un Amore Infinito (무한한 사랑)
TTITLE1=Cielo (하늘)
TTITLE2=Giorgio (조르지오)
TTITLE3=L'Angelo (천사)
TTITLE4=Mito (신화)
TTITLE5=Forever (영원히)
TTITLE6=Se (쎄)
TTITLE7=Mio Padre (나의 아버지)
TTITLE8=For John (존을 위하여)
TTITLE9=Pensiero (나의 생각)
TTITLE10=Ouverture D'Amour (사랑의 서곡)
TTITLE11=Nostalgia (노스텔지어)
TTITLE12=Il Gabbiano (갈매기)
EXTD=YEAR: 2002
EXTT0=
EXTT1=
EXTT2=
EXTT3=
EXTT4=
EXTT5=
EXTT6=
EXTT7=
EXTT8=
EXTT9=
EXTT10=
EXTT11=
EXTT12=
PLAYORDER=
